<?xml version="1.0" encoding="utf-8" standalone="no"?>
<!DOCTYPE svg PUBLIC "-//W3C//DTD SVG 1.1//EN" "http://www.w3.org/Graphics/SVG/1.1/DTD/svg11.dtd">
<svg xmlns="http://www.w3.org/2000/svg" xmlns:xlink="http://www.w3.org/1999/xlink" version="1.1" class="railroad-diagram" width="401" height="182" viewBox="0 0 401 182">
<defs><style type="text/css"><![CDATA[
svg.railroad-diagram path {
  stroke-width: 3;
  stroke: black;
  fill: none;
}
svg.railroad-diagram text {
  font: bold 14px monospace;
  text-anchor: middle;
}
svg.railroad-diagram text.label {
  text-anchor: start;
}
svg.railroad-diagram text.comment {
  font: italic 12px monospace;
}
svg.railroad-diagram rect {
  stroke-width: 3;
  stroke: black;
  fill: hsl(120,100%,90%);
}
 ]]></style></defs>
<g transform="translate(.5 .5)">
<path d="M 20 21 v 20 m 10 -20 v 20 m -10 -10 h 20.5"></path>
<g>
<path d="M40 31h0"></path>
<path d="M360 31h0"></path>
<path d="M40 31h20"></path>
<g>
<path d="M60 31h0"></path>
<path d="M340 31h0"></path>
<path d="M60 31h10"></path>
<g>
<path d="M70 31h0"></path>
<path d="M98 31h0"></path>
<rect x="70" y="20" width="28" height="22" rx="10" ry="10"></rect>
<text x="84" y="35">(</text>
</g>
<path d="M98 31h10"></path>
<path d="M108 31h10"></path>
<g>
<path d="M118 31h0"></path>
<path d="M282 31h0"></path>
<path d="M118 31h10"></path>
<g>
<path d="M128 31h0"></path>
<path d="M272 31h0"></path>
<path d="M128 31h10"></path>
<g>
<path d="M138 31h0"></path>
<path d="M190 31h0"></path>
<rect x="138" y="20" width="52" height="22" rx="10" ry="10"></rect>
<text x="164" y="35">PORT</text>
</g>
<path d="M190 31h10"></path>
<path d="M200 31h10"></path>
<g>
<path d="M210 31h0"></path>
<path d="M262 31h0"></path>
<rect x="210" y="20" width="52" height="22"></rect>
<text x="236" y="35">port</text>
</g>
<path d="M262 31h10"></path>
</g>
<path d="M272 31h10"></path>
<path d="M128 31a10 10 0 0 0 -10 10v10a10 10 0 0 0 10 10"></path>
<g>
<path d="M128 61h50"></path>
<path d="M222 61h50"></path>
<rect x="178" y="50" width="44" height="22" rx="10" ry="10"></rect>
<text x="200" y="65">AND</text>
</g>
<path d="M272 61a10 10 0 0 0 10 -10v-10a10 10 0 0 0 -10 -10"></path>
</g>
<path d="M282 31h10"></path>
<path d="M292 31h10"></path>
<g>
<path d="M302 31h0"></path>
<path d="M330 31h0"></path>
<rect x="302" y="20" width="28" height="22" rx="10" ry="10"></rect>
<text x="316" y="35">)</text>
</g>
<path d="M330 31h10"></path>
</g>
<path d="M340 31h20"></path>
<path d="M40 31a10 10 0 0 1 10 10v40a10 10 0 0 0 10 10"></path>
<g>
<path d="M60 91h34"></path>
<path d="M306 91h34"></path>
<path d="M94 91h10"></path>
<g>
<path d="M104 91h0"></path>
<path d="M164 91h0"></path>
<rect x="104" y="80" width="60" height="22" rx="10" ry="10"></rect>
<text x="134" y="95">PORTS</text>
</g>
<path d="M164 91h10"></path>
<path d="M174 91h10"></path>
<g>
<path d="M184 91h0"></path>
<path d="M296 91h0"></path>
<path d="M184 91h10"></path>
<g>
<path d="M194 91h0"></path>
<path d="M286 91h0"></path>
<rect x="194" y="80" width="92" height="22"></rect>
<text x="240" y="95">portrange</text>
</g>
<path d="M286 91h10"></path>
<path d="M194 91a10 10 0 0 0 -10 10v10a10 10 0 0 0 10 10"></path>
<g>
<path d="M194 121h32"></path>
<path d="M254 121h32"></path>
<rect x="226" y="110" width="28" height="22" rx="10" ry="10"></rect>
<text x="240" y="125">,</text>
</g>
<path d="M286 121a10 10 0 0 0 10 -10v-10a10 10 0 0 0 -10 -10"></path>
</g>
<path d="M296 91h10"></path>
</g>
<path d="M340 91a10 10 0 0 0 10 -10v-40a10 10 0 0 1 10 -10"></path>
<path d="M40 31a10 10 0 0 1 10 10v100a10 10 0 0 0 10 10"></path>
<g>
<path d="M60 151h98"></path>
<path d="M242 151h98"></path>
<rect x="158" y="140" width="84" height="22" rx="10" ry="10"></rect>
<text x="200" y="155">PORT ALL</text>
</g>
<path d="M340 151a10 10 0 0 0 10 -10v-100a10 10 0 0 1 10 -10"></path>
</g>
<path d="M 360 31 h 20 m -10 -10 v 20 m 10 -20 v 20"></path>
</g>
</svg>
