<?xml version="1.0" encoding="utf-8" standalone="no"?>
<!DOCTYPE svg PUBLIC "-//W3C//DTD SVG 1.1//EN" "http://www.w3.org/Graphics/SVG/1.1/DTD/svg11.dtd">
<svg xmlns="http://www.w3.org/2000/svg" xmlns:xlink="http://www.w3.org/1999/xlink" version="1.1" class="railroad-diagram" width="313" height="212" viewBox="0 0 313 212">
<defs><style type="text/css"><![CDATA[
svg.railroad-diagram path {
  stroke-width: 3;
  stroke: black;
  fill: none;
}
svg.railroad-diagram text {
  font: bold 14px monospace;
  text-anchor: middle;
}
svg.railroad-diagram text.label {
  text-anchor: start;
}
svg.railroad-diagram text.comment {
  font: italic 12px monospace;
}
svg.railroad-diagram rect {
  stroke-width: 3;
  stroke: black;
  fill: hsl(120,100%,90%);
}
 ]]></style></defs>
<g transform="translate(.5 .5)">
<path d="M 20 21 v 20 m 10 -20 v 20 m -10 -10 h 20.5"></path>
<g>
<path d="M40 31h0"></path>
<path d="M272 31h0"></path>
<path d="M40 31h20"></path>
<g>
<path d="M60 31h8"></path>
<path d="M244 31h8"></path>
<path d="M68 31h10"></path>
<g>
<path d="M78 31h0"></path>
<path d="M122 31h0"></path>
<rect x="78" y="20" width="44" height="22" rx="10" ry="10"></rect>
<text x="100" y="35">TCP</text>
</g>
<path d="M122 31h10"></path>
<path d="M132 31h10"></path>
<g>
<path d="M142 31h0"></path>
<path d="M234 31h0"></path>
<rect x="142" y="20" width="92" height="22"></rect>
<text x="188" y="35">port&#95;list</text>
</g>
<path d="M234 31h10"></path>
</g>
<path d="M252 31h20"></path>
<path d="M40 31a10 10 0 0 1 10 10v10a10 10 0 0 0 10 10"></path>
<g>
<path d="M60 61h8"></path>
<path d="M244 61h8"></path>
<path d="M68 61h10"></path>
<g>
<path d="M78 61h0"></path>
<path d="M122 61h0"></path>
<rect x="78" y="50" width="44" height="22" rx="10" ry="10"></rect>
<text x="100" y="65">UDP</text>
</g>
<path d="M122 61h10"></path>
<path d="M132 61h10"></path>
<g>
<path d="M142 61h0"></path>
<path d="M234 61h0"></path>
<rect x="142" y="50" width="92" height="22"></rect>
<text x="188" y="65">port&#95;list</text>
</g>
<path d="M234 61h10"></path>
</g>
<path d="M252 61a10 10 0 0 0 10 -10v-10a10 10 0 0 1 10 -10"></path>
<path d="M40 31a10 10 0 0 1 10 10v40a10 10 0 0 0 10 10"></path>
<g>
<path d="M60 91h4"></path>
<path d="M248 91h4"></path>
<path d="M64 91h10"></path>
<g>
<path d="M74 91h0"></path>
<path d="M126 91h0"></path>
<rect x="74" y="80" width="52" height="22" rx="10" ry="10"></rect>
<text x="100" y="95">ICMP</text>
</g>
<path d="M126 91h10"></path>
<path d="M136 91h10"></path>
<g>
<path d="M146 91h0"></path>
<path d="M238 91h0"></path>
<rect x="146" y="80" width="92" height="22"></rect>
<text x="192" y="95">type&#95;list</text>
</g>
<path d="M238 91h10"></path>
</g>
<path d="M252 91a10 10 0 0 0 10 -10v-40a10 10 0 0 1 10 -10"></path>
<path d="M40 31a10 10 0 0 1 10 10v70a10 10 0 0 0 10 10"></path>
<g>
<path d="M60 121h0"></path>
<path d="M252 121h0"></path>
<path d="M60 121h10"></path>
<g>
<path d="M70 121h0"></path>
<path d="M130 121h0"></path>
<rect x="70" y="110" width="60" height="22" rx="10" ry="10"></rect>
<text x="100" y="125">ICMP6</text>
</g>
<path d="M130 121h10"></path>
<path d="M140 121h10"></path>
<g>
<path d="M150 121h0"></path>
<path d="M242 121h0"></path>
<rect x="150" y="110" width="92" height="22"></rect>
<text x="196" y="125">type&#95;list</text>
</g>
<path d="M242 121h10"></path>
</g>
<path d="M252 121a10 10 0 0 0 10 -10v-70a10 10 0 0 1 10 -10"></path>
<path d="M40 31a10 10 0 0 1 10 10v100a10 10 0 0 0 10 10"></path>
<g>
<path d="M60 151h78"></path>
<path d="M174 151h78"></path>
<rect x="138" y="140" width="36" height="22" rx="10" ry="10"></rect>
<text x="156" y="155">AH</text>
</g>
<path d="M252 151a10 10 0 0 0 10 -10v-100a10 10 0 0 1 10 -10"></path>
<path d="M40 31a10 10 0 0 1 10 10v130a10 10 0 0 0 10 10"></path>
<g>
<path d="M60 181h74"></path>
<path d="M178 181h74"></path>
<rect x="134" y="170" width="44" height="22" rx="10" ry="10"></rect>
<text x="156" y="185">ESP</text>
</g>
<path d="M252 181a10 10 0 0 0 10 -10v-130a10 10 0 0 1 10 -10"></path>
</g>
<path d="M 272 31 h 20 m -10 -10 v 20 m 10 -20 v 20"></path>
</g>
</svg>
